#!OML:ASF H:\Dans Jumps\Project 1\Capture day 1\Session 1\subject.ASF
:FULLY-SPECIFIED
:DEGREES
642
root 0.0818808 17.7721 -6.35827 7.02075 -0.560165 -1.13169
lowerback -1.98295 -0.141448 -0.210717
upperback 4.03343 -0.24796 1.46256
thorax 5.28923 -0.165266 1.61671
lowerneck -10.9793 0.446557 -1.72024
upperneck 38.1582 0.880497 0.669898
head 15.1323 0.21609 0.728084
rclavicle -7.45443e-016 1.98785e-015
rhumerus -16.7687 -4.56225 -87.4854
rradius 22.4911
rwrist 39.8322
rhand -17.7589 -24.307
rfingers 7.12502
rthumb 8.503 -54.1158
lclavicle -7.45443e-016 1.98785e-015
lhumerus -14.732 -14.6413 93.0618
lradius 19.7866
lwrist -0.254961
lhand -24.2456 -4.72849
lfingers 7.12502
lthumb 2.24013 25.2395
rfemur -15.8796 -2.50096 20.3995
rtibia 21.5595
rfoot -12.1454 -2.50637
rtoes 15.6307
lfemur -13.6191 6.59773 -18.9292
ltibia 17.4664
lfoot -8.8241 7.56717
ltoes 8.31525
643
root 0.0811647 17.772 -6.35712 7.0261 -0.553423 -1.13052
lowerback -1.97233 -0.137019 -0.207089
upperback 4.04146 -0.242361 1.46532
thorax 5.29142 -0.162448 1.61794
lowerneck -10.9613 0.43369 -1.72393
upperneck 38.1622 0.859607 0.675808
head 15.1303 0.207599 0.727939
rclavicle -1.83876e-015 -2.5842e-015
rhumerus -16.9662 -5.47587 -87.0859
rradius 22.1581
rwrist 40.448
rhand -17.7012 -24.3375
rfingers 7.12502
rthumb 8.55866 -54.1441
lclavicle -1.83876e-015 -2.5842e-015
lhumerus -14.8268 -13.2901 92.5977
lradius 19.253
lwrist -1.10285
lhand -24.3143 -4.70793
lfingers 7.12502
lthumb 2.17381 25.2607
rfemur -15.8819 -2.50067 20.401
rtibia 21.563
rfoot -12.1512 -2.51607
rtoes 15.6197
lfemur -13.6238 6.60139 -18.9279
ltibia 17.4715
lfoot -8.83433 7.55953
ltoes 8.32108
644
root 0.0804671 17.7719 -6.35607 7.03427 -0.549728 -1.13195
lowerback -1.96488 -0.130782 -0.200472
upperback 4.04947 -0.234511 1.46827
thorax 5.29531 -0.158403 1.61783
lowerneck -10.9423 0.420538 -1.7299
upperneck 38.1673 0.838238 0.683577
head 15.1287 0.198829 0.728921
rclavicle -2.48481e-015 7.7526e-015
rhumerus -17.1676 -6.37542 -86.6794
rradius 21.8476
rwrist 41.0344
rhand -17.6422 -24.3617
rfingers 7.12502
rthumb 8.61559 -54.1659
lclavicle -2.48481e-015 7.7526e-015
lhumerus -14.9278 -11.9767 92.1222
lradius 18.7516
lwrist -1.91403
lhand -24.384 -4.69316
lfingers 7.12502
lthumb 2.10646 25.2762
rfemur -15.8896 -2.49863 20.4054
rtibia 21.569
rfoot -12.1574 -2.5234
rtoes 15.6169
lfemur -13.6317 6.60529 -18.9241
ltibia 17.4767
lfoot -8.84214 7.55367
ltoes 8.32457
645
root 0.0798165 17.7718 -6.35506 7.04437 -0.550221 -1.129
lowerback -1.9611 -0.122711 -0.197184
upperback 4.05778 -0.223958 1.46854
thorax 5.30154 -0.153103 1.61699
lowerneck -10.9208 0.407589 -1.73571
upperneck 38.1728 0.816513 0.692914
head 15.1266 0.190148 0.730471
rclavicle 7.95139e-016 8.94531e-015
rhumerus -17.3724 -7.26265 -86.2675
rradius 21.5572
rwrist 41.6001
rhand -17.5948 -24.3673
rfingers 7.12502
rthumb 8.66136 -54.1696
lclavicle 7.95139e-016 8.94531e-015
lhumerus -15.0361 -10.7061 91.6363
lradius 18.2841
lwrist -2.67921
lhand -24.4465 -4.68352
lfingers 7.12502
lthumb 2.0461 25.2864
rfemur -15.9015 -2.49596 20.4045
rtibia 21.5774
rfoot -12.1637 -2.52702
rtoes 15.614
lfemur -13.6412 6.6083 -18.9257
ltibia 17.4811
lfoot -8.84809 7.55193
ltoes 8.33093
646
root 0.0792076 17.7717 -6.35408 7.055 -0.553153 -1.12578
lowerback -1.95842 -0.113715 -0.193877
upperback 4.06657 -0.21215 1.46815
thorax 5.30886 -0.147172 1.61554
lowerneck -10.9 0.39508 -1.74116
upperneck 38.1794 0.795459 0.702068
head 15.1252 0.181769 0.732003
rclavicle 4.02539e-015 -3.97569e-015
rhumerus -17.5799 -8.1346 -85.8501
rradius 21.2828
rwrist 42.1585
rhand -17.5662 -24.3585
rfingers 7.12502
rthumb 8.68899 -54.1597
lclavicle 4.02539e-015 -3.97569e-015
lhumerus -15.1483 -9.47616 91.1434
lradius 17.843
lwrist -3.40806
lhand -24.4974 -4.657
lfingers 7.12502
lthumb 1.99695 25.3134
rfemur -15.9153 -2.49296 20.4031
rtibia 21.5872
rfoot -12.1704 -2.52839
rtoes 15.6176
lfemur -13.6508 6.61003 -18.928
ltibia 17.4844
lfoot -8.851 7.55331
ltoes 8.32977
647
root 0.0786563 17.7716 -6.35316 7.06517 -0.55603 -1.12233
lowerback -1.95523 -0.104475 -0.189056
upperback 4.07625 -0.200008 1.46591
thorax 5.3168 -0.140977 1.61135
lowerneck -10.885 0.382689 -1.74336
upperneck 38.1888 0.773937 0.710981
head 15.1266 0.173584 0.732843
rclavicle 2.93207e-015 3.97569e-015
rhumerus -17.7939 -8.97484 -85.4331
rradius 21.0306
rwrist 42.707
rhand -17.5557 -24.3467
rfingers 7.12502
rthumb 8.69916 -54.1474
lclavicle 2.93207e-015 3.97569e-015
lhumerus -15.2645 -8.29521 90.6435
lradius 17.4316
lwrist -4.09411
lhand -24.5371 -4.6182
lfingers 7.12502
lthumb 1.9586 25.3526
rfemur -15.9292 -2.49162 20.4012
rtibia 21.5977
rfoot -12.1774 -2.52757
rtoes 15.6329
lfemur -13.6588 6.60896 -18.9308
ltibia 17.4854
lfoot -8.8517 7.55749
ltoes 8.32927
648
root 0.0781379 17.7716 -6.35226 7.0741 -0.559109 -1.11666
lowerback -1.95152 -0.0951592 -0.185573
upperback 4.08709 -0.187608 1.46146
thorax 5.32563 -0.134666 1.60564
lowerneck -10.8745 0.370853 -1.74246
upperneck 38.1993 0.752273 0.720506
head 15.1295 0.165841 0.733401
rclavicle -2.43511e-015 -2.78299e-015
rhumerus -18.0105 -9.79222 -85.0173
rradius 20.7935
rwrist 43.2552
rhand -17.5623 -24.3309
rfingers 7.12502
rthumb 8.69272 -54.1319
lclavicle -2.43511e-015 -2.78299e-015
lhumerus -15.3914 -7.17417 90.1405
lradius 17.0593
lwrist -4.7322
lhand -24.5646 -4.56186
lfingers 7.12502
lthumb 1.93205 25.4091
rfemur -15.9414 -2.49235 20.3969
rtibia 21.607
rfoot -12.1842 -2.52572
rtoes 15.6369
lfemur -13.6651 6.60663 -18.9362
ltibia 17.4857
lfoot -8.8518 7.56335
ltoes 8.32264
649
root 0.077694 17.7715 -6.35137 7.0805 -0.560812 -1.1122
lowerback -1.94491 -0.0864706 -0.179996
upperback 4.09919 -0.176108 1.45635
thorax 5.33416 -0.128703 1.598
lowerneck -10.8677 0.359345 -1.73962
upperneck 38.2092 0.730292 0.730912
head 15.1331 0.158351 0.733948
rclavicle -2.28602e-015 -3.57812e-015
rhumerus -18.2303 -10.5617 -84.6081
rradius 20.5782
rwrist 43.774
rhand -17.5696 -24.3271
rfingers 7.12502
rthumb 8.68566 -54.1284
lclavicle -2.28602e-015 -3.57812e-015
lhumerus -15.5304 -6.12108 89.6381
lradius 16.7286
lwrist -5.31736
lhand -24.5868 -4.49495
lfingers 7.12502
lthumb 1.9106 25.4762
rfemur -15.9497 -2.49526 20.3938
rtibia 21.6149
rfoot -12.19 -2.52277
rtoes 15.636
lfemur -13.6683 6.60227 -18.9399
ltibia 17.4852
lfoot -8.85224 7.57026
ltoes 8.32246
650
root 0.0772466 17.7714 -6.35058 7.08526 -0.56241 -1.11002
lowerback -1.93481 -0.0783385 -0.173961
upperback 4.11098 -0.16541 1.45255
thorax 5.34039 -0.123136 1.59143
lowerneck -10.8662 0.348921 -1.73622
upperneck 38.2211 0.7099 0.741298
head 15.1389 0.151579 0.734682
rclavicle 1.59028e-015 -7.95139e-016
rhumerus -18.4509 -11.287 -84.2038
rradius 20.379
rwrist 44.2687
rhand -17.5843 -24.3228
rfingers 7.12502
rthumb 8.67151 -54.1247
lclavicle 1.59028e-015 -7.95139e-016
lhumerus -15.6843 -5.14067 89.1415
lradius 16.4467
lwrist -5.83545
lhand -24.58 -4.41007
lfingers 7.12502
lthumb 1.91716 25.5611
rfemur -15.9556 -2.49961 20.3934
rtibia 21.6212
rfoot -12.1953 -2.51877
rtoes 15.6292
lfemur -13.6699 6.59842 -18.941
ltibia 17.4844
lfoot -8.85299 7.57719
ltoes 8.31945
